<?xml version="1.0" encoding="utf-8"?>
<svg viewBox="129.922 6.864 60.227 51.99" xmlns="http://www.w3.org/2000/svg">
  <path d="M18.7712 28.1149L20.6589 30.0819L23.1107 28.8945L21.8273 31.3091L23.7135 33.2833L21.031 32.8045L19.7461 35.2149L19.3727 32.503L16.6915 32.0206L19.1447 30.8246L18.7712 28.1149Z" fill="#E50000" transform="matrix(1, 0, 0, 1, 129.515366, 6.988253)"/>
  <path d="M32.0325 40.1792C27.8336 41.893 23.3212 41.6064 19.5409 39.7642C16.2427 38.1575 13.5022 35.3655 12.0148 31.6853C10.2358 27.2837 10.622 22.5402 12.6735 18.6465C14.3035 15.5494 16.9854 12.9915 20.4678 11.5706C24.6667 9.85678 29.1791 10.1427 32.9587 11.9849L37.4909 2.60141C36.6833 2.20843 35.8559 1.85729 35.0123 1.54943L32.2754 4.5401C31.2341 4.22798 30.1688 3.99177 29.0873 3.83712L27.7693 0.0455797C26.8798 -0.00762249 25.9847 -0.0140068 25.0868 0.0271363L23.7405 3.7293C22.6287 3.84493 21.5161 4.04568 20.4106 4.33723L17.8212 1.43026C17.3997 1.5778 16.9797 1.73599 16.5618 1.90695C16.1439 2.0779 15.7323 2.25879 15.3285 2.44819L15.4873 6.29294C14.4538 6.85404 13.4803 7.48963 12.5704 8.19049L9.14657 6.53341C8.47451 7.13282 7.83704 7.76487 7.23699 8.42599L8.82819 11.8629C8.08836 12.7864 7.42407 13.7661 6.84378 14.7897L3.08958 14.5804C2.69849 15.3919 2.34905 16.2233 2.04337 17.071L4.80996 19.629C4.48452 20.7611 4.24874 21.9216 4.10614 23.0992L0.545362 24.3491C0.492416 25.2429 0.486063 26.1423 0.527007 27.0446L4.09625 28.3548C4.23109 29.499 4.45699 30.6432 4.77678 31.7789L1.92407 34.3454C2.0702 34.7689 2.22762 35.1917 2.39776 35.6116C2.56718 36.0316 2.7472 36.4444 2.9371 36.8509L6.81554 36.6891C7.37818 37.6893 8.01071 38.6307 8.70394 39.5117L7.00191 43.0621C7.59843 43.7374 8.22743 44.3779 8.88537 44.9809L12.5097 43.2862C13.3745 43.9573 14.2858 44.5595 15.2339 45.0915L15.0094 49.1477C15.817 49.5414 16.6444 49.8918 17.488 50.1997L20.2786 47.1522C21.286 47.4246 22.3152 47.6247 23.3572 47.7517L24.7317 51.7056C25.6212 51.7588 26.5163 51.7652 27.4142 51.7241L28.8692 47.7226C29.8568 47.5913 30.8444 47.3885 31.8257 47.1168L34.6798 50.3203C35.1013 50.1734 35.522 50.0152 35.9399 49.8443C36.3578 49.674 36.7694 49.4924 37.1732 49.3023L36.9932 44.9497C37.8488 44.4552 38.6613 43.9097 39.428 43.3174L43.3551 45.2178C44.0272 44.6184 44.6647 43.9856 45.2647 43.3252L43.4123 39.3237C44.0011 38.559 44.5369 37.7574 45.019 36.9261L49.4114 37.1708C49.8025 36.3593 50.1527 35.5286 50.4583 34.6809L40.8737 30.6142C39.5275 34.8051 36.4129 38.3916 32.0325 40.1792Z" fill="#E50000" transform="matrix(1, 0, 0, 1, 129.515366, 6.988253)"/>
  <path d="M15.0552 29.8273L21.3685 23.4743L26.3122 25.7244L28.562 30.6878L22.1726 37.1203C26.3609 38.6717 31.2482 37.7807 34.6416 34.4261C39.3263 29.7954 39.3884 22.2251 34.78 17.5177C30.1716 12.8104 22.6378 12.748 17.9531 17.3787C14.5689 20.7241 13.5975 25.6024 15.0552 29.8273Z" fill="#E50000" transform="matrix(1, 0, 0, 1, 129.515366, 6.988253)"/>
  <path d="M55.9751 6.49915L26.9341 19.1591L31.4592 29.6407L60.5002 16.9807L55.9751 6.49915ZM39.6594 22.3839L37.8098 18.0994L54.1256 10.9866L55.9751 15.2711L39.6594 22.3839Z" fill="#E50000" transform="matrix(1, 0, 0, 1, 129.515366, 6.988253)"/>
  <path d="M40.5832 17.1238L38.1306 18.193L39.8021 22.0644L42.2547 20.9953L40.5832 17.1238Z" fill="#E50000" transform="matrix(1, 0, 0, 1, 129.515366, 6.988253)"/>
  <path d="M43.2686 15.9421L40.816 17.0112L42.4875 20.8827L44.9401 19.8135L43.2686 15.9421Z" fill="#E50000" transform="matrix(1, 0, 0, 1, 129.515366, 6.988253)"/>
  <path d="M45.9824 14.7885L43.5298 15.8577L45.2012 19.7291L47.6538 18.6599L45.9824 14.7885Z" fill="#E50000" transform="matrix(1, 0, 0, 1, 129.515366, 6.988253)"/>
  <path d="M48.6332 13.6373L46.1807 14.7064L47.8521 18.5778L50.3047 17.5087L48.6332 13.6373Z" fill="#E50000" transform="matrix(1, 0, 0, 1, 129.515366, 6.988253)"/>
</svg>